<svg width="32" height="32" viewBox="0 0 32 32" xmlns="http://www.w3.org/2000/svg">
  <!-- Transparent background with Procyon logo dots pattern -->
  <g opacity="1">
    <!-- Crescent shape with gradient dots -->
    <circle cx="6" cy="8" r="1" fill="#8B4513"/>
    <circle cx="7" cy="6" r="1" fill="#A0522D"/>
    <circle cx="9" cy="5" r="1" fill="#CD853F"/>
    <circle cx="11" cy="4" r="1" fill="#D2691E"/>
    <circle cx="13" cy="3.5" r="1" fill="#FF8C00"/>
    <circle cx="15" cy="3" r="1" fill="#FFD700"/>
    <circle cx="17" cy="3.5" r="1" fill="#ADFF2F"/>
    <circle cx="19" cy="4" r="1" fill="#00FF7F"/>
    <circle cx="21" cy="5" r="1" fill="#00CED1"/>
    <circle cx="23" cy="6" r="1" fill="#1E90FF"/>
    <circle cx="24" cy="8" r="1" fill="#0000FF"/>
    
    <circle cx="5" cy="10" r="1" fill="#8B4513"/>
    <circle cx="6" cy="8" r="1" fill="#A0522D"/>
    <circle cx="8" cy="7" r="1" fill="#CD853F"/>
    <circle cx="10" cy="6" r="1" fill="#D2691E"/>
    <circle cx="12" cy="5.5" r="1" fill="#FF8C00"/>
    <circle cx="14" cy="5" r="1" fill="#FFD700"/>
    <circle cx="16" cy="5" r="1" fill="#ADFF2F"/>
    <circle cx="18" cy="5.5" r="1" fill="#00FF7F"/>
    <circle cx="20" cy="6" r="1" fill="#00CED1"/>
    <circle cx="22" cy="7" r="1" fill="#1E90FF"/>
    <circle cx="24" cy="8" r="1" fill="#0000FF"/>
    <circle cx="25" cy="10" r="1" fill="#4169E1"/>
    
    <circle cx="4" cy="12" r="1" fill="#8B4513"/>
    <circle cx="5" cy="10" r="1" fill="#A0522D"/>
    <circle cx="7" cy="9" r="1" fill="#CD853F"/>
    <circle cx="9" cy="8" r="1" fill="#D2691E"/>
    <circle cx="11" cy="7.5" r="1" fill="#FF8C00"/>
    <circle cx="13" cy="7" r="1" fill="#FFD700"/>
    <circle cx="15" cy="7" r="1" fill="#ADFF2F"/>
    <circle cx="17" cy="7" r="1" fill="#00FF7F"/>
    <circle cx="19" cy="7.5" r="1" fill="#00CED1"/>
    <circle cx="21" cy="8" r="1" fill="#1E90FF"/>
    <circle cx="23" cy="9" r="1" fill="#0000FF"/>
    <circle cx="25" cy="10" r="1" fill="#4169E1"/>
    <circle cx="26" cy="12" r="1" fill="#8A2BE2"/>
    
    <circle cx="5" cy="16" r="1" fill="#8B4513"/>
    <circle cx="7" cy="15" r="1" fill="#A0522D"/>
    <circle cx="9" cy="14" r="1" fill="#CD853F"/>
    <circle cx="11" cy="13" r="1" fill="#D2691E"/>
    <circle cx="13" cy="12.5" r="1" fill="#FF8C00"/>
    <circle cx="15" cy="12" r="1" fill="#FFD700"/>
    <circle cx="17" cy="12" r="1" fill="#ADFF2F"/>
    <circle cx="19" cy="12.5" r="1" fill="#00FF7F"/>
    <circle cx="21" cy="13" r="1" fill="#00CED1"/>
    <circle cx="23" cy="14" r="1" fill="#1E90FF"/>
    <circle cx="25" cy="15" r="1" fill="#0000FF"/>
    <circle cx="26" cy="16" r="1" fill="#4169E1"/>
    
    <circle cx="6" cy="20" r="1" fill="#8B4513"/>
    <circle cx="8" cy="19" r="1" fill="#A0522D"/>
    <circle cx="10" cy="18" r="1" fill="#CD853F"/>
    <circle cx="12" cy="17" r="1" fill="#D2691E"/>
    <circle cx="14" cy="16.5" r="1" fill="#FF8C00"/>
    <circle cx="16" cy="16" r="1" fill="#FFD700"/>
    <circle cx="18" cy="16.5" r="1" fill="#ADFF2F"/>
    <circle cx="20" cy="17" r="1" fill="#00FF7F"/>
    <circle cx="22" cy="18" r="1" fill="#00CED1"/>
    <circle cx="24" cy="19" r="1" fill="#1E90FF"/>
    <circle cx="25" cy="20" r="1" fill="#0000FF"/>
    
    <circle cx="7" cy="22" r="1" fill="#8B4513"/>
    <circle cx="9" cy="21" r="1" fill="#A0522D"/>
    <circle cx="11" cy="20" r="1" fill="#CD853F"/>
    <circle cx="13" cy="19.5" r="1" fill="#D2691E"/>
    <circle cx="15" cy="19" r="1" fill="#FF8C00"/>
    <circle cx="17" cy="19.5" r="1" fill="#FFD700"/>
    <circle cx="19" cy="20" r="1" fill="#ADFF2F"/>
    <circle cx="21" cy="21" r="1" fill="#00FF7F"/>
    <circle cx="23" cy="22" r="1" fill="#00CED1"/>
    <circle cx="24" cy="22" r="1" fill="#1E90FF"/>
  </g>
</svg>