<svg width="32" height="32" viewBox="0 0 32 32" xmlns="http://www.w3.org/2000/svg">
  <defs>
    <linearGradient id="gradient" x1="0%" y1="0%" x2="100%" y2="100%">
      <stop offset="0%" style="stop-color:#3b82f6;stop-opacity:1" />
      <stop offset="50%" style="stop-color:#10b981;stop-opacity:1" />
      <stop offset="100%" style="stop-color:#f59e0b;stop-opacity:1" />
    </linearGradient>
  </defs>
  
  <!-- Create the circular arc pattern with dots -->
  <circle cx="8" cy="16" r="1.5" fill="#3b82f6"/>
  <circle cx="10" cy="12" r="1.5" fill="#3b82f6"/>
  <circle cx="10" cy="20" r="1.5" fill="#3b82f6"/>
  <circle cx="12" cy="8" r="1.5" fill="#06b6d4"/>
  <circle cx="12" cy="16" r="1.5" fill="#06b6d4"/>
  <circle cx="12" cy="24" r="1.5" fill="#06b6d4"/>
  <circle cx="14" cy="6" r="1.5" fill="#10b981"/>
  <circle cx="14" cy="12" r="1.5" fill="#10b981"/>
  <circle cx="14" cy="20" r="1.5" fill="#10b981"/>
  <circle cx="14" cy="26" r="1.5" fill="#10b981"/>
  <circle cx="16" cy="4" r="1.5" fill="#22c55e"/>
  <circle cx="16" cy="8" r="1.5" fill="#22c55e"/>
  <circle cx="16" cy="16" r="1.5" fill="#22c55e"/>
  <circle cx="16" cy="24" r="1.5" fill="#22c55e"/>
  <circle cx="16" cy="28" r="1.5" fill="#22c55e"/>
  <circle cx="18" cy="6" r="1.5" fill="#84cc16"/>
  <circle cx="18" cy="12" r="1.5" fill="#84cc16"/>
  <circle cx="18" cy="20" r="1.5" fill="#84cc16"/>
  <circle cx="18" cy="26" r="1.5" fill="#84cc16"/>
  <circle cx="20" cy="8" r="1.5" fill="#eab308"/>
  <circle cx="20" cy="16" r="1.5" fill="#eab308"/>
  <circle cx="20" cy="24" r="1.5" fill="#eab308"/>
  <circle cx="22" cy="12" r="1.5" fill="#f59e0b"/>
  <circle cx="22" cy="20" r="1.5" fill="#f59e0b"/>
  <circle cx="24" cy="16" r="1.5" fill="#f59e0b"/>
</svg>