<svg width="32" height="32" viewBox="0 0 32 32" xmlns="http://www.w3.org/2000/svg">
  <!-- Create the crescent/arc shape with gradient dots like in the logo -->
  <!-- Top curve -->
  <circle cx="6" cy="12" r="1.2" fill="#3b82f6"/>
  <circle cx="8" cy="8" r="1.2" fill="#3b82f6"/>
  <circle cx="11" cy="5" r="1.2" fill="#06b6d4"/>
  <circle cx="14" cy="3" r="1.2" fill="#06b6d4"/>
  <circle cx="18" cy="2" r="1.2" fill="#10b981"/>
  <circle cx="22" cy="3" r="1.2" fill="#10b981"/>
  <circle cx="25" cy="5" r="1.2" fill="#84cc16"/>
  <circle cx="27" cy="8" r="1.2" fill="#84cc16"/>
  <circle cx="28" cy="12" r="1.2" fill="#f59e0b"/>
  
  <!-- Middle curve -->
  <circle cx="5" cy="16" r="1.2" fill="#3b82f6"/>
  <circle cx="7" cy="12" r="1.2" fill="#3b82f6"/>
  <circle cx="10" cy="8" r="1.2" fill="#06b6d4"/>
  <circle cx="14" cy="6" r="1.2" fill="#06b6d4"/>
  <circle cx="18" cy="5" r="1.2" fill="#10b981"/>
  <circle cx="22" cy="6" r="1.2" fill="#10b981"/>
  <circle cx="26" cy="8" r="1.2" fill="#84cc16"/>
  <circle cx="29" cy="12" r="1.2" fill="#84cc16"/>
  <circle cx="30" cy="16" r="1.2" fill="#f59e0b"/>
  
  <!-- Bottom curve -->
  <circle cx="6" cy="20" r="1.2" fill="#3b82f6"/>
  <circle cx="8" cy="24" r="1.2" fill="#3b82f6"/>
  <circle cx="11" cy="27" r="1.2" fill="#06b6d4"/>
  <circle cx="14" cy="29" r="1.2" fill="#06b6d4"/>
  <circle cx="18" cy="30" r="1.2" fill="#10b981"/>
  <circle cx="22" cy="29" r="1.2" fill="#10b981"/>
  <circle cx="25" cy="27" r="1.2" fill="#84cc16"/>
  <circle cx="27" cy="24" r="1.2" fill="#84cc16"/>
  <circle cx="28" cy="20" r="1.2" fill="#f59e0b"/>
</svg>